<svg width="512" height="512" viewBox="0 0 512 512" fill="none" xmlns="http://www.w3.org/2000/svg">
<path d="M209.902 156.949V39.4566L13.8088 234.029L209.902 430.463V312.981C209.902 312.981 381.518 270.511 499.654 469.013C499.654 469.013 529.105 317.506 397.16 207.718C397.17 207.708 338.736 153.068 209.902 156.949Z" fill="#4CAF50"/>
<path d="M504.354 495.958L491.277 473.996C391.67 306.613 253.318 315.985 219.654 321.085V454.044L0 233.999L219.654 16.0323V147.012C343.778 146.007 401.471 198.385 403.831 200.589C538.223 312.396 509.533 469.296 509.23 470.866L504.354 495.958ZM250.09 299.406C306.272 299.406 409.477 318.306 492.467 439.601C493.715 392.08 483.729 292.404 390.948 215.207C389.983 214.349 332.612 162.81 210.214 166.691L200.17 166.984V62.8712L27.6177 234.058L200.15 406.903V305.345L207.562 303.512C208.244 303.336 224.433 299.406 250.09 299.406Z" fill="#4CAF50"/>
</svg>
