<svg width="512" height="512" viewBox="0 0 512 512" fill="none" xmlns="http://www.w3.org/2000/svg">
<path d="M453.91 422H60.889C51.5879 421.987 42.6714 418.287 36.0945 411.71C29.5176 405.133 25.8171 396.216 25.8044 386.915V124.76C25.8146 116.073 29.2707 107.745 35.4142 101.603C41.5577 95.4613 49.8869 92.0077 58.5738 92H456.216C464.901 92.0102 473.228 95.465 479.369 101.606C485.511 107.748 488.965 116.074 488.975 124.76V386.925C488.965 396.223 485.268 405.137 478.694 411.712C472.121 418.287 463.208 421.987 453.91 422ZM58.5835 111.284C51.146 111.284 45.1072 117.322 45.1072 124.75V386.915C45.1072 395.617 52.1878 402.707 60.8987 402.707H453.92C462.621 402.707 469.702 395.626 469.702 386.915V124.76C469.702 117.322 463.663 111.293 456.235 111.293L58.5835 111.284Z" fill="black"/>
<path d="M257.4 300.463C247.313 300.486 237.563 296.842 229.965 290.208L73.4971 153.294C71.5858 151.607 70.4205 149.231 70.2558 146.687C70.0912 144.142 70.9406 141.636 72.6183 139.716C74.2961 137.796 76.6657 136.618 79.2093 136.44C81.7528 136.263 84.2633 137.099 86.192 138.767L242.669 275.671C246.755 279.226 251.988 281.184 257.404 281.184C262.82 281.184 268.054 279.226 272.14 275.671L428.607 138.767C430.536 137.099 433.046 136.263 435.59 136.44C438.133 136.618 440.503 137.796 442.181 139.716C443.859 141.636 444.708 144.142 444.543 146.687C444.379 149.231 443.213 151.607 441.302 153.294L284.834 290.199C277.236 296.832 267.486 300.479 257.4 300.463Z" fill="black"/>
</svg>
