<svg width="512" height="512" viewBox="0 0 512 512" fill="none" xmlns="http://www.w3.org/2000/svg">
<g clip-path="url(#clip0_119_21)">
<path d="M256 -1.52588e-05C171.169 -1.52588e-05 102.4 68.7691 102.4 153.6C102.4 235.52 243.089 431.863 249.071 440.183C249.862 441.282 250.902 442.177 252.107 442.795C253.312 443.412 254.646 443.734 256 443.733C257.354 443.734 258.688 443.412 259.893 442.795C261.098 442.177 262.138 441.282 262.929 440.183C268.911 431.863 409.6 235.52 409.6 153.6C409.6 68.7691 340.831 -1.52588e-05 256 -1.52588e-05ZM256 420.395C227.311 379.273 119.467 220.245 119.467 153.6C119.556 78.2315 180.631 17.1563 256 17.0667C331.369 17.1563 392.444 78.2315 392.533 153.6C392.533 220.228 284.689 379.273 256 420.395Z" fill="black"/>
<path d="M333.867 363.426C329.194 362.797 324.896 366.075 324.267 370.748C323.637 375.421 326.915 379.718 331.588 380.348C410.82 391.023 452.267 416.017 452.267 435.2C452.267 463.454 371.661 494.933 256 494.933C140.339 494.933 59.7333 463.454 59.7333 435.2C59.7333 416.043 101.129 391.057 180.25 380.365C182.492 380.062 184.523 378.88 185.894 377.079C187.266 375.279 187.866 373.008 187.563 370.765C187.259 368.522 186.078 366.492 184.277 365.12C182.477 363.749 180.205 363.148 177.963 363.452C112.555 372.284 42.6667 395.776 42.6667 435.2C42.6667 485.086 152.576 512 256 512C359.424 512 469.333 485.086 469.333 435.2C469.333 395.742 399.36 372.258 333.867 363.426ZM256 102.4C227.723 102.4 204.8 125.323 204.8 153.6C204.8 181.877 227.723 204.8 256 204.8C284.266 204.772 307.172 181.866 307.2 153.6C307.2 125.323 284.277 102.4 256 102.4ZM256 187.733C237.149 187.733 221.867 172.451 221.867 153.6C221.867 134.749 237.149 119.467 256 119.467C274.851 119.467 290.133 134.749 290.133 153.6C290.133 172.451 274.851 187.733 256 187.733Z" fill="black"/>
</g>
<defs>
<clipPath id="clip0_119_21">
<rect width="512" height="512" fill="white"/>
</clipPath>
</defs>
</svg>
