<svg width="512" height="512" viewBox="0 0 512 512" fill="none" xmlns="http://www.w3.org/2000/svg">
<path d="M437.428 63.708L337.428 22.736C336.366 22.3013 335.213 22.1342 334.072 22.2497C332.93 22.3651 331.834 22.7595 330.881 23.398C329.927 24.0365 329.146 24.8997 328.604 25.9114C328.063 26.9232 327.778 28.0525 327.776 29.2V62.08H193.68C192.761 62.0795 191.85 62.2602 191.001 62.6118C190.151 62.9634 189.379 63.479 188.729 64.1291C188.079 64.7792 187.563 65.5511 187.212 66.4006C186.86 67.2501 186.679 68.1606 186.68 69.08V201.2H163.08C160.201 201.198 157.352 201.788 154.711 202.933C152.069 204.078 149.691 205.754 147.724 207.856L121.356 236.04C119.432 238.046 117.926 240.414 116.924 243.006C115.922 245.599 115.445 248.364 115.52 251.143C115.596 253.921 116.222 256.657 117.363 259.191C118.503 261.725 120.136 264.008 122.166 265.907C124.195 267.805 126.582 269.282 129.187 270.251C131.791 271.221 134.563 271.663 137.34 271.553C140.117 271.443 142.845 270.783 145.365 269.611C147.885 268.438 150.147 266.777 152.02 264.724L172.144 243.2H186.68V264.516L173.404 301.2L148.4 334.304H91.2C85.6305 334.304 80.289 336.516 76.3508 340.455C72.4125 344.393 70.2 349.734 70.2 355.304C70.2 360.874 72.4125 366.215 76.3508 370.153C80.289 374.091 85.6305 376.304 91.2 376.304H158.84C162.087 376.295 165.287 375.538 168.194 374.092C171.101 372.645 173.635 370.548 175.6 367.964L186.672 353.3V438.56C186.672 440.417 187.41 442.197 188.722 443.51C190.035 444.822 191.815 445.56 193.672 445.56H327.776V482.8C327.776 483.949 328.059 485.079 328.6 486.093C329.14 487.106 329.922 487.971 330.876 488.611C331.83 489.251 332.926 489.646 334.069 489.762C335.211 489.878 336.365 489.711 337.428 489.276L437.428 448.304C438.714 447.778 439.814 446.882 440.588 445.728C441.363 444.575 441.776 443.217 441.776 441.828V70.184C441.776 68.7948 441.363 67.4371 440.588 66.2838C439.814 65.1305 438.714 64.2338 437.428 63.708ZM164.444 359.516C163.791 360.38 162.948 361.082 161.981 361.567C161.013 362.053 159.947 362.309 158.864 362.316H91.224C89.3675 362.316 87.587 361.579 86.2743 360.266C84.9615 358.953 84.224 357.173 84.224 355.316C84.224 353.459 84.9615 351.679 86.2743 350.366C87.587 349.053 89.3675 348.316 91.224 348.316H151.908C152.993 348.318 154.064 348.068 155.035 347.586C156.007 347.103 156.854 346.401 157.508 345.536L185.2 308.8C185.62 308.24 185.955 307.621 186.196 306.964L210.676 239.284C212.82 233.348 206.64 229.184 202.412 229.184H169.092C168.136 229.187 167.191 229.387 166.315 229.77C165.439 230.153 164.651 230.712 164 231.412L141.796 255.16C141.168 255.831 140.415 256.372 139.578 256.752C138.741 257.131 137.838 257.343 136.919 257.373C136.001 257.404 135.086 257.253 134.225 256.93C133.365 256.607 132.577 256.118 131.906 255.49C131.235 254.862 130.694 254.109 130.314 253.272C129.935 252.435 129.723 251.532 129.693 250.613C129.662 249.695 129.813 248.78 130.136 247.919C130.459 247.059 130.948 246.271 131.576 245.6L157.948 217.388C158.605 216.69 159.399 216.134 160.279 215.755C161.16 215.376 162.109 215.181 163.068 215.184H205.224C206.163 215.193 207.092 215.387 207.956 215.756L248.648 232.828C250.268 233.51 251.574 234.773 252.312 236.368L266.752 267.488C267.315 268.699 268.212 269.723 269.337 270.442C270.462 271.16 271.769 271.543 273.104 271.544H296.144C298.001 271.544 299.781 272.281 301.094 273.594C302.407 274.907 303.144 276.687 303.144 278.544C303.144 280.401 302.407 282.181 301.094 283.494C299.781 284.806 298.001 285.544 296.144 285.544H264.144C262.807 285.538 261.5 285.153 260.373 284.435C259.246 283.716 258.346 282.693 257.776 281.484L245.696 255.364C245.099 254.074 244.124 252.996 242.901 252.274C241.677 251.551 240.262 251.219 238.844 251.32C237.427 251.421 236.073 251.951 234.964 252.84C233.855 253.729 233.043 254.934 232.636 256.296L216.276 311.096C215.913 312.317 215.889 313.613 216.207 314.846C216.525 316.079 217.172 317.203 218.08 318.096L250.88 350.284C251.542 350.94 252.066 351.722 252.422 352.583C252.778 353.444 252.958 354.368 252.952 355.3V424.544C252.952 426.401 252.215 428.181 250.902 429.494C249.589 430.806 247.809 431.544 245.952 431.544C244.095 431.544 242.315 430.806 241.002 429.494C239.69 428.181 238.952 426.401 238.952 424.544V361.2C238.953 360.271 238.768 359.35 238.409 358.493C238.05 357.636 237.523 356.859 236.86 356.208L202.4 322.352C201.69 321.654 200.839 321.115 199.904 320.772C198.969 320.429 197.972 320.29 196.979 320.363C195.986 320.436 195.02 320.72 194.146 321.196C193.271 321.672 192.508 322.33 191.908 323.124L164.444 359.516ZM200.68 340.28L224.944 364.12V424.548C224.968 426.943 225.407 429.315 226.24 431.56H200.68V340.28ZM265.652 431.56C266.484 429.315 266.921 426.942 266.944 424.548V355.304C266.957 352.513 266.41 349.748 265.335 347.172C264.261 344.596 262.68 342.262 260.688 340.308L230.9 311.068L240.756 278.04L245.084 287.392C246.785 291.014 249.479 294.08 252.853 296.232C256.227 298.384 260.142 299.534 264.144 299.548H296.144C301.714 299.548 307.055 297.336 310.993 293.397C314.932 289.459 317.144 284.118 317.144 278.548C317.144 272.978 314.932 267.637 310.993 263.699C307.055 259.76 301.714 257.548 296.144 257.548H277.576L265.016 230.484C262.814 225.729 258.917 221.967 254.088 219.932L213.364 202.848C210.789 201.757 208.021 201.192 205.224 201.188H200.68V76.08H327.776V431.56H265.652ZM427.776 437.12L341.776 472.356V39.644L427.776 74.88V437.12Z" fill="black"/>
<path d="M247.78 144.8C241.204 144.801 234.777 146.751 229.309 150.405C223.842 154.059 219.582 159.252 217.066 165.327C214.55 171.403 213.892 178.088 215.175 184.537C216.459 190.986 219.626 196.91 224.276 201.559C228.925 206.209 234.85 209.375 241.299 210.657C247.748 211.94 254.433 211.281 260.508 208.765C266.583 206.248 271.776 201.987 275.429 196.519C279.082 191.052 281.032 184.624 281.032 178.048C281.022 169.232 277.516 160.78 271.282 154.547C265.048 148.314 256.596 144.808 247.78 144.8ZM247.78 197.296C243.973 197.295 240.252 196.166 237.087 194.05C233.923 191.935 231.456 188.928 230 185.411C228.544 181.894 228.163 178.024 228.906 174.29C229.649 170.557 231.483 167.128 234.175 164.436C236.867 161.745 240.297 159.912 244.03 159.17C247.764 158.427 251.634 158.809 255.151 160.266C258.668 161.722 261.674 164.19 263.788 167.355C265.903 170.52 267.032 174.241 267.032 178.048C267.027 183.152 264.997 188.046 261.387 191.655C257.778 195.265 252.884 197.291 247.78 197.296Z" fill="black"/>
</svg>
