<svg width="512" height="512" viewBox="0 0 512 512" fill="none" xmlns="http://www.w3.org/2000/svg">
<path d="M388.532 220.645H384.196V172.456C383.995 138.721 370.453 106.436 346.527 82.6517C322.601 58.8679 290.236 45.5182 256.5 45.5182C222.764 45.5182 190.399 58.8679 166.473 82.6517C142.547 106.436 129.005 138.721 128.804 172.456V220.645H124.468C104.356 220.645 88 238.392 88 260.212V428.845C88 450.656 104.356 468.403 124.468 468.403H388.532C408.64 468.403 425 450.656 425 428.845V260.216C425 238.392 408.64 220.645 388.532 220.645ZM144.661 172.456C144.849 142.918 156.715 114.654 177.669 93.8332C198.622 73.0127 226.961 61.327 256.5 61.327C286.039 61.327 314.378 73.0127 335.331 93.8332C356.285 114.654 368.151 142.918 368.339 172.456V220.645H344.054V172.456C343.888 149.344 334.59 127.236 318.189 110.952C301.787 94.6681 279.612 85.5297 256.5 85.5297C233.388 85.5297 211.213 94.6681 194.811 110.952C178.41 127.236 169.112 149.344 168.946 172.456V220.645H144.661V172.456ZM184.803 220.645V172.456C184.954 153.54 192.574 135.449 206.003 122.126C219.433 108.803 237.583 101.327 256.5 101.327C275.417 101.327 293.567 108.803 306.997 122.126C320.426 135.449 328.046 153.54 328.196 172.456V220.645H184.803ZM409.142 428.845C409.142 441.912 399.895 452.546 388.532 452.546H124.468C113.105 452.546 103.858 441.912 103.858 428.845V260.216C103.858 247.145 113.105 236.507 124.468 236.507H388.532C399.895 236.507 409.142 247.145 409.142 260.216V428.845Z" fill="black"/>
</svg>
