<svg width="512" height="512" viewBox="0 0 512 512" fill="none" xmlns="http://www.w3.org/2000/svg">
<g clip-path="url(#clip0_119_17)">
<path d="M432.873 72.756C332.433 -24.252 173.196 -24.252 72.756 72.756C-26.6879 175.718 -23.8359 339.799 79.1263 439.243C179.566 536.251 338.803 536.251 439.243 439.243C538.687 336.282 535.835 172.2 432.873 72.756ZM427.061 427.061L426.975 426.975C332.462 521.403 179.296 521.333 84.8688 426.819C-9.55843 332.306 -9.48856 179.141 85.0247 84.7139C179.538 -9.71335 332.704 -9.64349 427.131 84.8688C449.589 107.347 467.399 134.03 479.543 163.393C491.687 192.756 497.926 224.224 497.906 255.999C497.908 287.768 491.653 319.226 479.497 348.577C467.342 377.927 449.524 404.597 427.061 427.061Z" fill="black"/>
<path d="M401.575 329.781L353.022 281.4C342.002 270.354 324.114 270.333 313.069 281.352L313.021 281.4L285.202 309.218C284.183 310.24 282.836 310.87 281.398 310.997C279.96 311.123 278.523 310.738 277.341 309.91C262.115 299.269 247.862 287.299 234.748 274.142C223.004 262.425 212.2 249.801 202.436 236.388C201.58 235.221 201.17 233.787 201.281 232.345C201.392 230.902 202.016 229.547 203.041 228.526L231.551 200.016C242.558 188.987 242.558 171.13 231.551 160.101L182.998 111.548C171.809 100.851 154.186 100.851 142.997 111.548L127.619 126.926C104.395 149.889 96.1039 183.986 106.193 215.048C113.722 237.774 124.363 259.348 137.813 279.153C149.922 297.31 163.814 314.212 179.283 329.608C196.1 346.546 214.729 361.582 234.834 374.447C256.936 388.869 281.203 399.661 306.715 406.413C313.273 408.029 320.003 408.842 326.758 408.831C349.913 408.69 372.067 399.369 388.358 382.913L401.576 369.694C412.582 358.667 412.582 340.81 401.575 329.781ZM389.341 357.912L389.306 357.946L389.393 357.687L376.174 370.905C367.823 379.361 357.433 385.521 346.007 388.79C334.581 392.059 322.505 392.327 310.946 389.567C287.26 383.227 264.743 373.135 244.249 359.674C225.209 347.506 207.564 333.28 191.635 317.254C176.978 302.704 163.81 286.728 152.325 269.564C139.762 251.095 129.819 230.976 122.778 209.779C118.82 197.569 118.34 184.499 121.392 172.032C124.444 159.565 130.907 148.195 140.057 139.194L155.435 123.816C159.71 119.522 166.658 119.506 170.952 123.782L170.986 123.816L219.54 172.37C223.834 176.645 223.849 183.593 219.574 187.887L219.54 187.921L191.029 216.431C182.849 224.523 181.82 237.381 188.61 246.67C198.922 260.821 210.333 274.139 222.737 286.498C236.566 300.387 251.6 313.021 267.662 324.253C276.943 330.727 289.525 329.635 297.554 321.661L325.114 293.669C329.389 289.375 336.337 289.359 340.63 293.635L340.665 293.669L389.305 342.396C393.601 346.671 393.616 353.617 389.341 357.912Z" fill="black"/>
</g>
<defs>
<clipPath id="clip0_119_17">
<rect width="512" height="512" fill="white"/>
</clipPath>
</defs>
</svg>
